PathFileType	4	(X/Y/Z)	arm26_elbow_flex.trc							
DataRate	CameraRate	NumFrames	NumMarkers	Units	OrigDataRate	OrigDataStartFrame	OrigNumFrames			
120	120	48	3	mm	120	1	121			
Frame#	Time	r_acromion			r_humerus_epicondyle			r_radius_styloid		
		X1	Y1	Z1	X2	Y2	Z2	X3	Y3	Z3
1	0	-13.05452443	39.50547557	169.5054756	-12.55937962	-297.4143796	199.9856204	-13.12468341	-533.5696827	251.4203173
2	0.008333333	-12.96064763	39.59935237	169.5993524	-12.56732433	-297.4223243	199.9776757	-12.86702479	-533.6003803	251.3825496
3	0.016666667	-12.85342531	39.70657469	169.7065747	-12.57439418	-297.4293942	199.9706058	-12.58261002	-533.6298174	251.345015
4	0.025	-12.73642902	39.82357098	169.823571	-12.58031211	-297.4353121	199.9646879	-12.24699837	-533.6583339	251.3065762
5	0.033333333	-12.6135559	39.9464441	169.9464441	-12.58484621	-297.4398462	199.9601538	-11.83747124	-533.6860727	251.2661701
6	0.041666667	-12.48889884	40.07110116	170.0711012	-12.58781879	-297.4428188	199.9571812	-11.33375263	-533.7129239	251.2228408
7	0.05	-12.36661015	40.19338985	170.1933899	-12.58911335	-297.4441134	199.9558866	-10.71857495	-533.7384701	251.1757657
8	0.058333333	-12.25076325	40.30923675	170.3092367	-12.58867917	-297.4436792	199.9563208	-9.978059159	-533.7619438	251.1242727
9	0.066666667	-12.145217	40.414783	170.414783	-12.58653327	-297.4415333	199.9584667	-9.101892467	-533.782204	251.067848
10	0.075	-12.05348712	40.50651288	170.5065129	-12.58275972	-297.4377597	199.9622403	-8.083303614	-533.7977386	251.0061347
11	0.083333333	-11.97862914	40.58137086	170.5813709	-12.57750643	-297.4325064	199.9674936	-6.918849957	-533.8066911	250.9389234
12	0.091666667	-11.92313656	40.63686344	170.6368634	-12.57097925	-297.4259792	199.9740208	-5.608043639	-533.8069086	250.8661353
13	0.1	-11.88885783	40.67114217	170.6711422	-12.56343398	-297.418434	199.981566	-4.152855989	-533.7960048	250.7877997
14	0.108333333	-11.87693478	40.68306522	170.6830652	-12.5551663	-297.4101663	199.9898337	-2.557144446	-533.7714259	250.7040283
15	0.116666667	-11.88776455	40.67223545	170.6722354	-12.54650022	-297.4015002	199.9984998	-0.82605009	-533.7305136	250.6149878
16	0.125	-11.92098642	40.63901358	170.6390136	-12.53777535	-297.3927754	200.0072246	1.034587889	-533.670554	250.5208721
17	0.133333333	-11.97549376	40.58450624	170.5845062	-12.52933361	-297.3843336	200.0156664	3.018760023	-533.5888099	250.4218778
18	0.141666667	-12.04947094	40.51052906	170.5105291	-12.5215058	-297.3765058	200.0234942	5.120723399	-533.4825329	250.318183
19	0.15	-12.1404538	40.4195462	170.4195462	-12.51459871	-297.3695987	200.0304013	7.335325965	-533.3489583	250.209931
20	0.158333333	-12.24541169	40.31458831	170.3145883	-12.508883	-297.363883	200.036117	9.658207452	-533.1852857	250.0972196
21	0.166666667	-12.36084848	40.19915152	170.1991515	-12.50458267	-297.3595827	200.0404173	12.0858783	-532.9886524	249.9800963
22	0.175	-12.48291899	40.07708101	170.077081	-12.50186624	-297.3568662	200.0431338	14.61568794	-532.756105	249.858559
23	0.183333333	-12.60755706	39.95244294	169.9524429	-12.50084017	-297.3558402	200.0441598	17.24570218	-532.4845759	249.7325611
24	0.191666667	-12.73061101	39.82938899	169.829389	-12.50154466	-297.3565447	200.0434553	19.97451563	-532.1708694	249.6020204
25	0.2	-12.84798193	39.71201807	169.7120181	-12.50395211	-297.3589521	200.0410479	22.80102652	-531.8116611	249.4668304
26	0.208333333	-12.95576019	39.60423981	169.6042398	-12.50796817	-297.3629682	200.0370318	25.72420218	-531.4035097	249.3268722
27	0.216666667	-13.05035573	39.50964427	169.5096443	-12.51343546	-297.3684355	200.0315645	28.74285944	-530.9428834	249.1820268
28	0.225	-13.12861757	39.43138243	169.4313824	-12.52013972	-297.3751397	200.0248603	31.85547992	-530.4261956	249.0321854
29	0.233333333	-13.18793882	39.37206118	169.3720612	-12.52781822	-297.3828182	200.0171818	35.06007332	-529.849848	248.8772579
30	0.241666667	-13.22634349	39.33365651	169.3336565	-12.53617006	-297.3911701	200.0088299	38.35409503	-529.2102761	248.7171788
31	0.25	-13.24255234	39.31744766	169.3174477	-12.54486793	-297.3998679	200.0001321	41.73441777	-528.5039929	248.5519105
32	0.258333333	-13.23602543	39.32397457	169.3239746	-12.55357097	-297.408571	199.991429	45.19735198	-527.7276278	248.3814437
33	0.266666667	-13.2069802	39.3530198	169.3530198	-12.56193813	-297.4169381	199.9830619	48.7387043	-526.8779576	248.2057958
34	0.275	-13.15638412	39.40361588	169.4036159	-12.56964151	-297.4246415	199.9753585	52.35386195	-525.9519281	248.025008
35	0.283333333	-13.08592254	39.47407746	169.4740775	-12.57637922	-297.4313792	199.9686208	56.03788978	-524.9466669	247.8391406
36	0.291666667	-12.99794255	39.56205745	169.5620575	-12.58188722	-297.4368872	199.9631128	59.78562802	-523.8594884	247.648269
37	0.3	-12.89537473	39.66462527	169.6646253	-12.58594965	-297.4409497	199.9590503	63.59178037	-522.6878929	247.4524794
38	0.308333333	-12.78163562	39.77836438	169.7783644	-12.58840733	-297.4434073	199.9565927	67.45098525	-521.4295627	247.2518652
39	0.316666667	-12.66051385	39.89948615	169.8994862	-12.58916392	-297.4441639	199.9558361	71.35786711	-520.0823581	247.0465248
40	0.325	-12.53604397	40.02395603	170.023956	-12.5881898	-297.4431898	199.9568102	75.30706652	-518.6443149	246.8365596
41	0.333333333	-12.41237207	40.14762793	170.1476279	-12.58552312	-297.4405231	199.9594769	79.29325201	-517.1136455	246.6220748
42	0.341666667	-12.29361763	40.26638237	170.2663824	-12.58126839	-297.4362684	199.9637316	83.31111691	-515.4887449	246.4031787
43	0.35	-12.18373637	40.37626363	170.3762636	-12.57559236	-297.4305924	199.9694076	87.35536692	-513.7682005	246.1799851
44	0.358333333	-12.08638841	40.47361159	170.4736116	-12.56871745	-297.4237174	199.9762826	91.42070336	-511.9508055	245.9526138
45	0.366666667	-12.00481639	40.55518361	170.5551836	-12.56091308	-297.4159131	199.9840869	95.50180651	-510.0355755	245.7211931
46	0.375	-11.94173749	40.61826251	170.6182625	-12.5524851	-297.4074851	199.9925149	99.59332261	-508.0217649	245.4858608
47	0.383333333	-11.89925284	40.66074716	170.6607472	-12.54376379	-297.3987638	200.0012362	103.6898568	-505.9088843	245.2467659
48	0.391666667	-11.87877761	40.68122239	170.6812224	-12.53509093	-297.3900909	200.0099091	107.7859727	-503.6967154	245.0040686
